<svg xmlns="http://www.w3.org/2000/svg" version="1.1" xmlns:xlink="http://www.w3.org/1999/xlink" xmlns:svgjs="http://svgjs.dev/svgjs" width="1500" height="1500" viewBox="0 0 1500 1500"><rect width="1500" height="1500" fill="#ffffff"></rect><g transform="matrix(0.6666666666666666,0,0,0.6666666666666666,249.39393939393938,687.4880360664977)"><svg viewBox="0 0 396 49" data-background-color="#ffffff" preserveAspectRatio="xMidYMid meet" height="185" width="1500" xmlns="http://www.w3.org/2000/svg" xmlns:xlink="http://www.w3.org/1999/xlink"><g id="tight-bounds" transform="matrix(1,0,0,1,0.2400000000000091,0.33583431952664)"><svg viewBox="0 0 395.52 48.32833136094674" height="48.32833136094674" width="395.52"><g><svg viewBox="0 0 395.52 48.32833136094674" height="48.32833136094674" width="395.52"><g><svg viewBox="0 0 395.52 48.32833136094674" height="48.32833136094674" width="395.52"><g id="textblocktransform"><svg viewBox="0 0 395.52 48.32833136094674" height="48.32833136094674" width="395.52" id="textblock"><g><svg viewBox="0 0 395.52 48.32833136094674" height="48.32833136094674" width="395.52"><g transform="matrix(1,0,0,1,0,0)"><svg width="395.52" viewBox="0.98 -40.28 340.52 40.33" height="48.32833136094674" data-palette-color="#111111"><g class="wordmark-text-0" data-fill-palette-color="primary" id="text-0"><path d="M33.13-35.01L33.13-8.91Q33.13-7.01 32.47-5.37 31.81-3.74 30.63-2.54 29.44-1.34 27.81-0.67 26.17 0 24.24 0L24.24 0 0.98 0 0.98-6.35 24.24-6.35Q25.42-6.35 26.07-7.02 26.73-7.69 26.73-8.91L26.73-8.91 26.73-35.01 33.13-35.01ZM46.14-37.55L46.14-31.81 39.79-31.81 39.79-37.55 46.14-37.55ZM46.14-26.39L46.14 0 39.79 0 39.79-26.39 46.14-26.39ZM75.31-26.39L75.31-20.04 61.03-20.04Q59.74-20.04 59.08-19.4 58.42-18.75 58.42-17.5L58.42-17.5 58.42 0 52.07 0 52.07-17.5Q52.07-19.14 52.49-20.43 52.9-21.73 53.6-22.72 54.29-23.71 55.2-24.4 56.1-25.1 57.09-25.54 58.08-25.98 59.09-26.18 60.1-26.39 60.98-26.39L60.98-26.39 75.31-26.39ZM51.46-34.3L54.41-38.4 62.91-34.01 71.41-38.4 74.36-34.3 62.91-27.81 51.46-34.3ZM85.93-26.39L85.93 0 79.58 0 79.58-26.39 85.93-26.39ZM93.06-40.28L95.74-34.35 83-29.79 81.32-33.45 93.06-40.28Z" fill="#111111" data-fill-palette-color="primary"></path><path d="M134.38-17.5L152.38 0 143.37 0 129.09-14.31 124.62-14.31 124.62-20.7 129.09-20.7 143.37-35.01 152.38-35.01 134.38-17.5ZM122.08-35.01L122.08 0 115.73 0 115.73-35.01 122.08-35.01ZM184.36-17.5L184.36-8.91Q184.36-7.28 183.94-5.97 183.53-4.66 182.84-3.67 182.16-2.69 181.26-1.99 180.35-1.29 179.37-0.85 178.38-0.42 177.36-0.21 176.35 0 175.45 0L175.45 0 164 0Q162.68 0 161.12-0.46 159.55-0.93 158.22-1.99 156.89-3.05 156-4.75 155.11-6.45 155.11-8.91L155.11-8.91 155.11-17.5Q155.11-19.95 156-21.64 156.89-23.34 158.22-24.4 159.55-25.46 161.12-25.93 162.68-26.39 164-26.39L164-26.39 175.45-26.39Q177.89-26.39 179.6-25.51 181.31-24.63 182.36-23.3 183.41-21.97 183.88-20.41 184.36-18.85 184.36-17.5L184.36-17.5ZM178.01-8.91L178.01-17.46Q178.01-18.77 177.35-19.41 176.69-20.04 175.45-20.04L175.45-20.04 164.05-20.04Q162.78-20.04 162.12-19.4 161.46-18.75 161.46-17.5L161.46-17.5 161.46-8.91Q161.46-7.67 162.12-7.01 162.78-6.35 164.05-6.35L164.05-6.35 175.45-6.35Q176.74-6.35 177.38-7.01 178.01-7.67 178.01-8.91L178.01-8.91ZM215.31-6.35L215.31 0 198.1 0Q196.78 0 195.22-0.46 193.66-0.93 192.33-1.99 191-3.05 190.11-4.75 189.21-6.45 189.21-8.91L189.21-8.91 189.21-17.5Q189.21-18.41 189.42-19.41 189.63-20.41 190.07-21.4 190.51-22.39 191.2-23.29 191.9-24.19 192.89-24.88 193.88-25.56 195.17-25.98 196.46-26.39 198.1-26.39L198.1-26.39 215.31-26.39 215.31-20.04 198.1-20.04Q196.86-20.04 196.21-19.41 195.56-18.77 195.56-17.46L195.56-17.46 195.56-8.91Q195.56-7.67 196.22-7.01 196.88-6.35 198.15-6.35L198.15-6.35 215.31-6.35ZM192.17-34.3L195.12-38.4 203.62-34.01 212.11-38.4 215.07-34.3 203.62-27.81 192.17-34.3ZM245.31-26.39L252.05-26.39Q250.98-23.05 249.54-19.8 248.1-16.55 246.23-13.61 244.36-10.67 242.06-8.17 239.75-5.66 236.95-3.85 234.16-2.03 230.87-0.99 227.59 0.05 223.76 0.05L223.76 0.05Q223.1 0.05 222.51-0.2 221.93-0.44 221.49-0.87 221.05-1.29 220.8-1.87 220.56-2.44 220.56-3.1L220.56-3.1 220.56-26.39 226.91-26.39 226.91-6.54Q229.23-6.54 231.36-7.54 233.5-8.54 235.4-10.19 237.31-11.84 238.93-13.94 240.55-16.04 241.82-18.25 243.09-20.46 243.98-22.58 244.88-24.71 245.31-26.39L245.31-26.39ZM281.57-17.65L281.57-8.74Q281.57-7.42 281.1-5.9 280.64-4.37 279.6-3.06 278.56-1.76 276.89-0.88 275.22 0 272.83 0L272.83 0 261.38 0Q260.06 0 258.53-0.46 257.01-0.93 255.7-1.97 254.39-3 253.52-4.68 252.64-6.35 252.64-8.74L252.64-8.74Q252.64-10.06 253.1-11.6 253.56-13.13 254.6-14.44 255.64-15.75 257.31-16.63 258.98-17.5 261.38-17.5L261.38-17.5 272.83-17.5 272.83-11.45 261.38-11.45Q260.08-11.45 259.37-10.66 258.67-9.86 258.67-8.69L258.67-8.69Q258.67-7.45 259.48-6.75 260.3-6.05 261.43-6.05L261.43-6.05 272.83-6.05Q274.12-6.05 274.83-6.84 275.54-7.62 275.54-8.79L275.54-8.79 275.54-17.65Q275.54-18.9 274.77-19.63 274-20.36 272.83-20.36L272.83-20.36 258.89-20.36 258.89-26.39 272.83-26.39Q274.15-26.39 275.67-25.93 277.2-25.46 278.5-24.43 279.81-23.39 280.69-21.72 281.57-20.04 281.57-17.65L281.57-17.65ZM310.08-26.39L310.08-20.04 295.8-20.04Q294.5-20.04 293.85-19.4 293.19-18.75 293.19-17.5L293.19-17.5 293.19 0 286.84 0 286.84-17.5Q286.84-19.14 287.25-20.43 287.67-21.73 288.36-22.72 289.06-23.71 289.96-24.4 290.87-25.1 291.86-25.54 292.84-25.98 293.86-26.18 294.87-26.39 295.75-26.39L295.75-26.39 310.08-26.39ZM341.5-17.65L341.5-8.74Q341.5-7.42 341.04-5.9 340.57-4.37 339.53-3.06 338.5-1.76 336.82-0.88 335.15 0 332.76 0L332.76 0 321.31 0Q319.99 0 318.46-0.46 316.94-0.93 315.63-1.97 314.33-3 313.45-4.68 312.57-6.35 312.57-8.74L312.57-8.74Q312.57-10.06 313.03-11.6 313.5-13.13 314.53-14.44 315.57-15.75 317.24-16.63 318.92-17.5 321.31-17.5L321.31-17.5 332.76-17.5 332.76-11.45 321.31-11.45Q320.01-11.45 319.31-10.66 318.6-9.86 318.6-8.69L318.6-8.69Q318.6-7.45 319.42-6.75 320.23-6.05 321.36-6.05L321.36-6.05 332.76-6.05Q334.05-6.05 334.76-6.84 335.47-7.62 335.47-8.79L335.47-8.79 335.47-17.65Q335.47-18.9 334.7-19.63 333.93-20.36 332.76-20.36L332.76-20.36 318.82-20.36 318.82-26.39 332.76-26.39Q334.08-26.39 335.6-25.93 337.13-25.46 338.43-24.43 339.74-23.39 340.62-21.72 341.5-20.04 341.5-17.65L341.5-17.65Z" fill="#df5155" data-fill-palette-color="secondary"></path></g></svg></g></svg></g></svg></g></svg></g><g></g></svg></g><defs></defs></svg><rect width="395.52" height="48.32833136094674" fill="none" stroke="none" visibility="hidden"></rect></g></svg></g></svg>